<?xml version="1.0" encoding="UTF-8"?>
<svg width="32px" height="32px" viewBox="0 0 32 32" version="1.1" xmlns="http://www.w3.org/2000/svg" xmlns:xlink="http://www.w3.org/1999/xlink">
    <title>trump-sun-diap-circle</title>
    <g id="trump" stroke="none" stroke-width="1" fill="none" fill-rule="evenodd">
        <g transform="translate(-760, -232)" id="sun">
            <g transform="translate(760, 74)">
                <g id="diap" transform="translate(0, 118)">
                    <g id="trump-sun-diap-circle" transform="translate(0, 40)">
                        <circle id="Oval" fill="#000000" cx="16" cy="16" r="16"></circle>
                        <path d="M8.77751232,16.2620598 C8.77751232,12.4180989 11.8842753,9.31133598 15.7282362,9.31133598 C19.5721971,9.31133598 22.67896,12.4180989 22.67896,16.2620598 C22.67896,20.1060207 19.5721971,23.2127837 15.7282362,23.2127837 C11.8842753,23.2127837 8.77751232,20.1060207 8.77751232,16.2620598 Z M20.2462251,4.40684147 C20.2462251,6.82906342 18.1241296,9.15336499 15.7019077,9.15336499 C13.2796857,9.15336499 11.2714801,6.82906342 11.2714801,4.40684147 M5.02899221,10.6203673 C6.99461097,10.9646608 8.59321282,13.0500587 8.59321282,15.7881468 C8.59321282,18.7632673 6.80287486,21.1854892 4.59128091,21.1854892 M10.8048068,27.7676141 C10.8048068,25.3453921 13.2796857,23.3707547 15.7282362,23.3707547 C18.1767866,23.3707547 20.4568531,25.3453921 20.4568531,27.7676141 M26.6887997,21.5804167 C24.7668193,21.5804167 22.836931,19.0265523 22.836931,16.3410453 C22.836931,13.6555384 24.932698,11.0152948 26.8546785,11.0152948 M26.8546785,11.0152948 C25.143326,12.7266473 22.2735196,12.6476618 20.4568531,10.8046668 C18.6401867,8.98800037 18.5348727,6.11819394 20.2462251,4.40684147 M11.2425181,4.40684147 C12.9538705,6.11819394 12.9538705,8.90901487 11.2425181,10.6203673 C9.53116562,12.3317198 6.74034468,12.3317198 5.02899221,10.6203673 M4.59128091,21.1854892 C6.30263337,19.4741368 9.06712581,19.8690643 10.8048068,21.5804167 C12.5161592,23.2917692 12.5161592,26.0562616 10.8048068,27.7676141 M20.4752738,27.7676141 C18.7639214,26.0562616 18.7639214,23.2654407 20.4752738,21.5804167 C22.1866263,19.8690643 24.9511188,19.8690643 26.6887997,21.5804167" id="icon" stroke="#FFFFFF" stroke-width="2.5" stroke-linecap="round" stroke-linejoin="round"></path>
                    </g>
                </g>
            </g>
        </g>
    </g>
</svg>