<?xml version="1.0" encoding="UTF-8"?>
<svg width="32px" height="32px" viewBox="0 0 32 32" version="1.1" xmlns="http://www.w3.org/2000/svg" xmlns:xlink="http://www.w3.org/1999/xlink">
    <title>trump-lovers-diap-circle</title>
    <g id="trump" stroke="none" stroke-width="1" fill="none" fill-rule="evenodd">
        <g transform="translate(-240, -232)" id="lovers">
            <g transform="translate(240, 74)">
                <g id="diap" transform="translate(0, 118)">
                    <g id="trump-lovers-diap-circle" transform="translate(0, 40)">
                        <circle id="Oval" fill="#000000" cx="16" cy="16" r="16"></circle>
                        <path d="M15.738588,17.7685375 L13.9472423,14.455775 C12.2295137,12.7380463 9.45660878,12.7380463 7.7388801,14.455775 C6.02115141,16.1735037 6.02115141,18.9464086 7.7388801,20.6641373 L11.5669612,27.0197334 M16.0821337,17.7685375 L17.8734793,14.455775 C19.591208,12.7380463 22.3641129,12.7380463 24.0573026,14.455775 C25.7750313,16.1735037 25.7750313,18.9464086 24.0573026,20.6641373 L20.2537605,27.0197334 M10.1576951,11.0820485 C11.5556149,11.0820485 12.6888527,9.94881067 12.6888527,8.55089095 C12.6888527,7.15297122 11.5556149,6.01973338 10.1576951,6.01973338 C8.75977542,6.01973338 7.62653757,7.15297122 7.62653757,8.55089095 C7.62653757,9.94881067 8.75977542,11.0820485 10.1576951,11.0820485 Z M21.9187687,11.0820485 C23.3166884,11.0820485 24.4499263,9.94881067 24.4499263,8.55089095 C24.4499263,7.15297122 23.3166884,6.01973338 21.9187687,6.01973338 C20.520849,6.01973338 19.3876112,7.15297122 19.3876112,8.55089095 C19.3876112,9.94881067 20.520849,11.0820485 21.9187687,11.0820485 Z" id="icon" stroke="#FFFFFF" stroke-width="2.5" stroke-linecap="round" stroke-linejoin="round"></path>
                    </g>
                </g>
            </g>
        </g>
    </g>
</svg>