<?xml version="1.0" encoding="UTF-8"?>
<svg width="32px" height="32px" viewBox="0 0 32 32" version="1.1" xmlns="http://www.w3.org/2000/svg" xmlns:xlink="http://www.w3.org/1999/xlink">
    <title>trump-fortune-plain-square</title>
    <g id="trump" stroke="none" stroke-width="1" fill="none" fill-rule="evenodd">
        <g transform="translate(-400, -112)" id="fortune">
            <g transform="translate(400, 74)">
                <g id="trump-fortune-plain-square" transform="translate(0, 38)">
                    <rect id="Rectangle" stroke="#000000" stroke-width="2.5" x="1.25" y="1.25" width="29.5" height="29.5"></rect>
                    <g id="icon" transform="translate(5, 5.91)">
                        <path d="M15.1150644,1.94289029e-16 C15.1150644,2.39403762 13.2087011,4.30040091 10.8146635,4.30040091 C8.42062585,4.30040091 6.51426255,2.39403762 6.51426255,1.94289029e-16 M0,11.6467344 C1.80161528,10.5892646 4.15154824,11.2159134 5.16985253,13.0566942 C6.22732237,14.8583095 5.60067357,17.2082425 3.7990583,18.2265467 M17.8100427,18.4884389 C16.0546329,17.4580896 15.4440556,15.2065857 16.4744048,13.4511759 C17.5047541,11.6957661 19.756258,11.0851888 21.5116678,12.115538 M4.07944689,1.85510396 C5.88106217,2.9125738 6.50771096,5.22334122 5.45024112,7.02495649 C4.39277129,8.82657177 2.08200387,9.45322056 0.280388593,8.39575072 M6.46162031,20.392475 C6.46162031,17.980926 8.42658617,16.0606185 10.7934769,16.0606185 C13.1603676,16.0606185 15.1253334,17.980926 15.1253334,20.392475 M21.3946067,8.23939598 C19.6391969,9.26974522 17.3495319,8.65916789 16.3573437,6.90375807 C15.3269945,5.14834825 15.9375718,2.85868327 17.6929816,1.86649511" id="stops" fill="#000000"></path>
                        <path d="M0.976899323,10.2538133 C0.976899323,4.75688076 5.4486103,0.285169781 10.9455428,0.285169781 C16.4424753,0.285169781 20.9141863,4.73506753 20.9141863,10.2538133 C20.9141863,15.772559 16.4642886,20.2224568 10.9455428,20.2224568 C5.42679707,20.2224568 0.976899323,15.772559 0.976899323,10.2538133 Z" id="Path" stroke="#000000" stroke-width="2.5" stroke-linecap="round" stroke-linejoin="round"></path>
                    </g>
                </g>
            </g>
        </g>
    </g>
</svg>