<?xml version="1.0" encoding="UTF-8"?>
<svg width="32px" height="110px" viewBox="0 0 32 110" version="1.1" xmlns="http://www.w3.org/2000/svg" xmlns:xlink="http://www.w3.org/1999/xlink">
    <title>trump-moon-plain-square</title>
    <g id="trump" stroke="none" stroke-width="1" fill="none" fill-rule="evenodd">
        <g transform="translate(-720, -112)" id="moon" stroke-width="2.5">
            <g transform="translate(720, 74)">
                <g id="plain" transform="translate(0, 38)">
                    <g id="trump-moon-plain-square" transform="translate(0, 0)">
                        <rect id="Rectangle" stroke="#000000" x="1.25" y="1.25" width="29.5" height="29.5"></rect>
                        <path d="M5.95501022,15.8995774 C5.95501022,10.4462713 10.3612815,6.04 15.8145876,6.04 C21.2678937,6.04 25.674165,10.4462713 25.674165,15.8995774 C25.674165,21.3528834 21.2678937,25.7591547 15.8145876,25.7591547 C10.3612815,25.7591547 5.95501022,21.3528834 5.95501022,15.8995774 L5.95501022,15.8995774 Z M19.1618182,6.83966474 C19.1618182,6.83966474 16.1849528,8.51645194 15.0198,10.641252 C13.8546472,12.766052 17.4695869,14.7334676 17.4695869,14.7334676 L14.1819433,17.0594356 C14.1819433,17.0594356 18.1848877,17.9965952 16.9166963,21.3842431 C15.6485048,24.771891 11.4083163,24.6903067 11.4083163,24.6903067" id="icon" stroke="#000000" stroke-linecap="round" stroke-linejoin="round"></path>
                        <path d="M3.73238932,95.9021983 C3.73238932,89.2195665 9.13195581,83.82 15.8145876,83.82 C22.4972194,83.82 27.8967859,89.2195665 27.8967859,95.9021983 C27.8967859,102.58483 22.4972194,107.984397 15.8145876,107.984397 C9.13195581,107.984397 3.73238932,102.58483 3.73238932,95.9021983 L3.73238932,95.9021983 Z M19.9163764,84.7999312 C19.9163764,84.7999312 16.2684434,86.8547126 14.8406329,89.4585012 C13.4128225,92.0622898 17.8426695,94.4732152 17.8426695,94.4732152 L13.8139003,97.3235206 C13.8139003,97.3235206 18.7192187,98.4719418 17.165142,102.623259 C15.6110652,106.774576 10.4150211,106.674601 10.4150211,106.674601" id="icon" stroke="#FFFFFF" stroke-linecap="round" stroke-linejoin="round"></path>
                    </g>
                </g>
            </g>
        </g>
    </g>
</svg>