<?xml version="1.0" encoding="UTF-8"?>
<svg width="32px" height="32px" viewBox="0 0 32 32" version="1.1" xmlns="http://www.w3.org/2000/svg" xmlns:xlink="http://www.w3.org/1999/xlink">
    <title>trump-sun-plain-square</title>
    <g id="trump" stroke="none" stroke-width="1" fill="none" fill-rule="evenodd">
        <g transform="translate(-760, -112)" id="sun" stroke="#000000" stroke-width="2.5">
            <g transform="translate(760, 74)">
                <g id="trump-sun-plain-square" transform="translate(0, 38)">
                    <rect id="Rectangle" x="1.25" y="1.25" width="29.5" height="29.5"></rect>
                    <path d="M9.96864349,16.2320766 C9.96864349,13.0473458 12.542604,10.4733853 15.7273347,10.4733853 C18.9120654,10.4733853 21.4860259,13.0473458 21.4860259,16.2320766 C21.4860259,19.4168073 18.9120654,21.9907678 15.7273347,21.9907678 C12.542604,21.9907678 9.96864349,19.4168073 9.96864349,16.2320766 Z M19.4704993,6.41 C19.4704993,8.41681663 17.7123381,10.342506 15.7055215,10.342506 C13.6987048,10.342506 12.0349017,8.41681663 12.0349017,6.41 M6.86298569,11.5579209 C8.49150549,11.8431688 9.81595092,13.5709259 9.81595092,15.8394385 C9.81595092,18.3043329 8.33265167,20.3111495 6.50034083,20.3111495 M11.6482618,25.7644556 C11.6482618,23.7576389 13.6987048,22.1216471 15.7273347,22.1216471 C17.7559646,22.1216471 19.6450051,23.7576389 19.6450051,25.7644556 M24.8081876,20.6383479 C23.2158222,20.6383479 21.6169052,18.5224651 21.6169052,16.2975162 C21.6169052,14.0725673 23.3532532,11.8851193 24.9456186,11.8851193 M24.9456186,11.8851193 C23.527759,13.3029789 21.1501175,13.2375392 19.6450051,11.7106135 C18.1398926,10.205501 18.0526397,7.82785958 19.4704993,6.41 M12.0109066,6.41 C13.4287662,7.82785958 13.4287662,10.1400613 12.0109066,11.5579209 C10.593047,12.9757805 8.28084526,12.9757805 6.86298569,11.5579209 M6.50034083,20.3111495 C7.91820041,18.8932899 10.208589,19.2204883 11.6482618,20.6383479 C13.0661213,22.0562074 13.0661213,24.346596 11.6482618,25.7644556 M19.6602667,25.7644556 C18.2424071,24.346596 18.2424071,22.0343942 19.6602667,20.6383479 C21.0781263,19.2204883 23.3685148,19.2204883 24.8081876,20.6383479" id="icon" stroke-linecap="round" stroke-linejoin="round"></path>
                </g>
            </g>
        </g>
    </g>
</svg>