<?xml version="1.0" encoding="UTF-8"?>
<svg width="32px" height="32px" viewBox="0 0 32 32" version="1.1" xmlns="http://www.w3.org/2000/svg" xmlns:xlink="http://www.w3.org/1999/xlink">
    <title>trump-sun-plain-circle</title>
    <g id="trump" stroke="none" stroke-width="1" fill="none" fill-rule="evenodd">
        <g transform="translate(-760, -152)" id="sun" stroke="#000000" stroke-width="2.5">
            <g transform="translate(760, 74)">
                <g id="plain" transform="translate(0, 38)">
                    <g id="trump-sun-plain-circle" transform="translate(0, 40)">
                        <circle id="Oval" cx="16" cy="16" r="14.75"></circle>
                        <path d="M9.96864349,16.2290389 C9.96864349,13.0443081 12.542604,10.4703476 15.7273347,10.4703476 C18.9120654,10.4703476 21.4860259,13.0443081 21.4860259,16.2290389 C21.4860259,19.4137696 18.9120654,21.9877301 15.7273347,21.9877301 C12.542604,21.9877301 9.96864349,19.4137696 9.96864349,16.2290389 Z M19.4704993,6.4069623 C19.4704993,8.41377894 17.7123381,10.3394683 15.7055215,10.3394683 C13.6987048,10.3394683 12.0349017,8.41377894 12.0349017,6.4069623 M6.86298569,11.5548832 C8.49150549,11.8401311 9.81595092,13.5678883 9.81595092,15.8364008 C9.81595092,18.3012952 8.33265167,20.3081118 6.50034083,20.3081118 M11.6482618,25.7614179 C11.6482618,23.7546012 13.6987048,22.1186094 15.7273347,22.1186094 C17.7559646,22.1186094 19.6450051,23.7546012 19.6450051,25.7614179 M24.8081876,20.6353102 C23.2158222,20.6353102 21.6169052,18.5194274 21.6169052,16.2944785 C21.6169052,14.0695297 23.3532532,11.8820816 24.9456186,11.8820816 M24.9456186,11.8820816 C23.527759,13.2999412 21.1501175,13.2345015 19.6450051,11.7075758 C18.1398926,10.2024633 18.0526397,7.82482188 19.4704993,6.4069623 M12.0109066,6.4069623 C13.4287662,7.82482188 13.4287662,10.1370237 12.0109066,11.5548832 C10.593047,12.9727428 8.28084526,12.9727428 6.86298569,11.5548832 M6.50034083,20.3081118 C7.91820041,18.8902522 10.208589,19.2174506 11.6482618,20.6353102 C13.0661213,22.0531697 13.0661213,24.3435583 11.6482618,25.7614179 M19.6602667,25.7614179 C18.2424071,24.3435583 18.2424071,22.0313565 19.6602667,20.6353102 C21.0781263,19.2174506 23.3685148,19.2174506 24.8081876,20.6353102" id="icon" stroke-linecap="round" stroke-linejoin="round"></path>
                    </g>
                </g>
            </g>
        </g>
    </g>
</svg>