<?xml version="1.0" encoding="UTF-8"?>
<svg width="32px" height="32px" viewBox="0 0 32 32" version="1.1" xmlns="http://www.w3.org/2000/svg" xmlns:xlink="http://www.w3.org/1999/xlink">
    <title>trump-lovers-plain-square</title>
    <g id="trump" stroke="none" stroke-width="1" fill="none" fill-rule="evenodd">
        <g transform="translate(-240, -112)" id="lovers" stroke="#000000" stroke-width="2.5">
            <g transform="translate(240, 74)">
                <g id="trump-lovers-plain-square" transform="translate(0, 38)">
                    <rect id="Rectangle" x="1.25" y="1.25" width="29.5" height="29.5"></rect>
                    <path d="M15.7632011,17.5758331 L14.24828,14.7742667 C12.7956159,13.3216026 10.4506011,13.3216026 8.99793701,14.7742667 C7.54527294,16.2269308 7.54527294,18.5719456 8.99793701,20.0246097 L12.2353027,25.3994668 M16.0537339,17.5758331 L17.568655,14.7742667 C19.0213191,13.3216026 21.3663339,13.3216026 22.7982457,14.7742667 C24.2509097,16.2269308 24.2509097,18.5719456 22.7982457,20.0246097 L19.5816324,25.3994668 M11.043502,11.9211437 C12.2257072,11.9211437 13.1840739,10.962777 13.1840739,9.78057184 C13.1840739,8.59836666 12.2257072,7.64 11.043502,7.64 C9.86129685,7.64 8.90293019,8.59836666 8.90293019,9.78057184 C8.90293019,10.962777 9.86129685,11.9211437 11.043502,11.9211437 Z M20.9897113,11.9211437 C22.1719165,11.9211437 23.1302832,10.962777 23.1302832,9.78057184 C23.1302832,8.59836666 22.1719165,7.64 20.9897113,7.64 C19.8075061,7.64 18.8491395,8.59836666 18.8491395,9.78057184 C18.8491395,10.962777 19.8075061,11.9211437 20.9897113,11.9211437 Z" id="icon" stroke-linecap="round" stroke-linejoin="round"></path>
                </g>
            </g>
        </g>
    </g>
</svg>