<?xml version="1.0" encoding="UTF-8"?>
<svg width="32px" height="32px" viewBox="0 0 32 32" version="1.1" xmlns="http://www.w3.org/2000/svg" xmlns:xlink="http://www.w3.org/1999/xlink">
    <title>trump-lovers-diap-square</title>
    <g id="trump" stroke="none" stroke-width="1" fill="none" fill-rule="evenodd">
        <g transform="translate(-240, -192)" id="lovers">
            <g transform="translate(240, 74)">
                <g id="trump-lovers-diap-square" transform="translate(0, 118)">
                    <rect id="Rectangle" fill="#000000" x="0" y="0" width="32" height="32"></rect>
                    <path d="M15.738588,17.7688041 L13.9472423,14.4560416 C12.2295137,12.7383129 9.45660878,12.7383129 7.7388801,14.4560416 C6.02115141,16.1737703 6.02115141,18.9466752 7.7388801,20.6644039 L11.5669612,27.02 M16.0821337,17.7688041 L17.8734793,14.4560416 C19.591208,12.7383129 22.3641129,12.7383129 24.0573026,14.4560416 C25.7750313,16.1737703 25.7750313,18.9466752 24.0573026,20.6644039 L20.2537605,27.02 M10.1576951,11.0823151 C11.5556149,11.0823151 12.6888527,9.94907729 12.6888527,8.55115757 C12.6888527,7.15323784 11.5556149,6.02 10.1576951,6.02 C8.75977542,6.02 7.62653757,7.15323784 7.62653757,8.55115757 C7.62653757,9.94907729 8.75977542,11.0823151 10.1576951,11.0823151 Z M21.9187687,11.0823151 C23.3166884,11.0823151 24.4499263,9.94907729 24.4499263,8.55115757 C24.4499263,7.15323784 23.3166884,6.02 21.9187687,6.02 C20.520849,6.02 19.3876112,7.15323784 19.3876112,8.55115757 C19.3876112,9.94907729 20.520849,11.0823151 21.9187687,11.0823151 Z" id="icon" stroke="#FFFFFF" stroke-width="2.5" stroke-linecap="round" stroke-linejoin="round"></path>
                </g>
            </g>
        </g>
    </g>
</svg>