<?xml version="1.0" encoding="UTF-8"?>
<svg width="32px" height="108px" viewBox="0 0 32 108" version="1.1" xmlns="http://www.w3.org/2000/svg" xmlns:xlink="http://www.w3.org/1999/xlink">
    <title>trump-moon-diap-circle</title>
    <g id="trump" stroke="none" stroke-width="1" fill="none" fill-rule="evenodd">
        <g transform="translate(-720, -156)" id="moon">
            <g transform="translate(720, 74)">
                <g id="diap" transform="translate(0, 84.0423)">
                    <g id="trump-moon-diap-circle" transform="translate(0, 0)">
                        <circle id="Oval" fill="#000000" cx="16" cy="89.9577369" r="16"></circle>
                        <path d="M5.95501022,9.85957737 C5.95501022,4.4062713 10.3612815,0 15.8145876,0 C21.2678937,0 25.674165,4.4062713 25.674165,9.85957737 C25.674165,15.3128834 21.2678937,19.7191547 15.8145876,19.7191547 C10.3612815,19.7191547 5.95501022,15.3128834 5.95501022,9.85957737 L5.95501022,9.85957737 Z M19.1618182,0.799664739 C19.1618182,0.799664739 16.1849528,2.47645194 15.0198,4.60125198 C13.8546472,6.72605201 17.4695869,8.69346762 17.4695869,8.69346762 L14.1819433,11.0194356 C14.1819433,11.0194356 18.1848877,11.9565952 16.9166963,15.3442431 C15.6485048,18.731891 11.4083163,18.6503067 11.4083163,18.6503067" id="icon" stroke="#000000" stroke-width="2.5" stroke-linecap="round" stroke-linejoin="round"></path>
                    </g>
                </g>
            </g>
        </g>
    </g>
</svg>