<?xml version="1.0" encoding="UTF-8"?>
<svg width="32px" height="32px" viewBox="0 0 32 32" version="1.1" xmlns="http://www.w3.org/2000/svg" xmlns:xlink="http://www.w3.org/1999/xlink">
    <title>trump-magician-plain-circle</title>
    <g id="trump" stroke="none" stroke-width="1" fill="none" fill-rule="evenodd">
        <g transform="translate(-40, -152)" id="magician" stroke="#000000" stroke-width="2.5">
            <g transform="translate(40, 74)">
                <g id="plain" transform="translate(0, 38)">
                    <g id="trump-magician-plain-circle" transform="translate(0, 40)">
                        <circle id="Oval" cx="16" cy="16" r="14.75"></circle>
                        <path d="M15.9197244,16 C15.9197244,14.1192564 13.5573269,12.5825513 10.621532,12.5825513 C7.68573714,12.5825513 5.32333969,14.1192564 5.32333969,16 C5.32333969,17.8807436 7.68573714,19.4174487 10.621532,19.4174487 C13.5573269,19.4174487 15.9197244,17.8807436 15.9197244,16 Z M26.6766603,16 C26.6766603,14.1192564 24.3142629,12.5825513 21.378468,12.5825513 C18.4426731,12.5825513 16.0802756,14.1192564 16.0802756,16 C16.0802756,17.8807436 18.4426731,19.4174487 21.378468,19.4174487 C24.3142629,19.4174487 26.6766603,17.8807436 26.6766603,16 Z" id="icon" stroke-linecap="round" stroke-linejoin="round"></path>
                    </g>
                </g>
            </g>
        </g>
    </g>
</svg>