<?xml version="1.0" encoding="UTF-8"?>
<svg width="32px" height="32px" viewBox="0 0 32 32" version="1.1" xmlns="http://www.w3.org/2000/svg" xmlns:xlink="http://www.w3.org/1999/xlink">
    <title>trump-magician-diap-circle</title>
    <g id="trump" stroke="none" stroke-width="1" fill="none" fill-rule="evenodd">
        <g transform="translate(-40, -232)" id="magician">
            <g transform="translate(40, 74)">
                <g id="diap" transform="translate(0, 118)">
                    <g id="trump-magician-diap-circle" transform="translate(0, 40)">
                        <circle id="Oval" fill="#000000" cx="16" cy="16" r="16"></circle>
                        <path d="M15.9063006,15.9983969 C15.9063006,13.8031539 13.1488613,12.0094798 9.72214057,12.0094798 C6.29541986,12.0094798 3.53798053,13.8031539 3.53798053,15.9983969 C3.53798053,18.1936398 6.29541986,19.9873139 9.72214057,19.9873139 C13.1488613,19.9873139 15.9063006,18.1936398 15.9063006,15.9983969 Z M28.4620195,15.9983969 C28.4620195,13.8031539 25.7045801,12.0094798 22.2778594,12.0094798 C18.8511387,12.0094798 16.0936994,13.8031539 16.0936994,15.9983969 C16.0936994,18.1936398 18.8511387,19.9873139 22.2778594,19.9873139 C25.7045801,19.9873139 28.4620195,18.1936398 28.4620195,15.9983969 Z" id="icon" stroke="#FFFFFF" stroke-width="2.5" stroke-linecap="round" stroke-linejoin="round"></path>
                    </g>
                </g>
            </g>
        </g>
    </g>
</svg>