<?xml version="1.0" encoding="UTF-8"?>
<svg width="32px" height="32px" viewBox="0 0 32 32" version="1.1" xmlns="http://www.w3.org/2000/svg" xmlns:xlink="http://www.w3.org/1999/xlink">
    <title>trump-sun-diap-square</title>
    <g id="trump" stroke="none" stroke-width="1" fill="none" fill-rule="evenodd">
        <g transform="translate(-760, -192)" id="sun">
            <g transform="translate(760, 74)">
                <g id="trump-sun-diap-square" transform="translate(0, 118)">
                    <rect id="Rectangle" fill="#000000" x="0" y="0" width="32" height="32"></rect>
                    <path d="M8.77751232,16.2652184 C8.77751232,12.4212574 11.8842753,9.31449451 15.7282362,9.31449451 C19.5721971,9.31449451 22.67896,12.4212574 22.67896,16.2652184 C22.67896,20.1091793 19.5721971,23.2159422 15.7282362,23.2159422 C11.8842753,23.2159422 8.77751232,20.1091793 8.77751232,16.2652184 Z M20.2462251,4.41 C20.2462251,6.83222195 18.1241296,9.15652351 15.7019077,9.15652351 C13.2796857,9.15652351 11.2714801,6.83222195 11.2714801,4.41 M5.02899221,10.6235259 C6.99461097,10.9678193 8.59321282,13.0532172 8.59321282,15.7913054 C8.59321282,18.7664258 6.80287486,21.1886478 4.59128091,21.1886478 M10.8048068,27.7707726 C10.8048068,25.3485507 13.2796857,23.3739132 15.7282362,23.3739132 C18.1767866,23.3739132 20.4568531,25.3485507 20.4568531,27.7707726 M26.6887997,21.5835752 C24.7668193,21.5835752 22.836931,19.0297108 22.836931,16.3442039 C22.836931,13.6586969 24.932698,11.0184534 26.8546785,11.0184534 M26.8546785,11.0184534 C25.143326,12.7298058 22.2735196,12.6508203 20.4568531,10.8078254 C18.6401867,8.9911589 18.5348727,6.12135246 20.2462251,4.41 M11.2425181,4.41 C12.9538705,6.12135246 12.9538705,8.9121734 11.2425181,10.6235259 C9.53116562,12.3348783 6.74034468,12.3348783 5.02899221,10.6235259 M4.59128091,21.1886478 C6.30263337,19.4772953 9.06712581,19.8722228 10.8048068,21.5835752 C12.5161592,23.2949277 12.5161592,26.0594201 10.8048068,27.7707726 M20.4752738,27.7707726 C18.7639214,26.0594201 18.7639214,23.2685992 20.4752738,21.5835752 C22.1866263,19.8722228 24.9511188,19.8722228 26.6887997,21.5835752" id="icon" stroke="#FFFFFF" stroke-width="2.5" stroke-linecap="round" stroke-linejoin="round"></path>
                </g>
            </g>
        </g>
    </g>
</svg>