<?xml version="1.0" encoding="UTF-8"?>
<svg width="32px" height="32px" viewBox="0 0 32 32" version="1.1" xmlns="http://www.w3.org/2000/svg" xmlns:xlink="http://www.w3.org/1999/xlink">
    <title>trump-lovers-plain-circle</title>
    <g id="trump" stroke="none" stroke-width="1" fill="none" fill-rule="evenodd">
        <g transform="translate(-240, -152)" id="lovers" stroke="#000000" stroke-width="2.5">
            <g transform="translate(240, 74)">
                <g id="plain" transform="translate(0, 38)">
                    <g id="trump-lovers-plain-circle" transform="translate(0, 40)">
                        <circle id="Oval" cx="16" cy="16" r="14.75"></circle>
                        <path d="M15.7632011,17.5783997 L14.24828,14.7768333 C12.7956159,13.3241692 10.4506011,13.3241692 8.99793701,14.7768333 C7.54527294,16.2294973 7.54527294,18.5745122 8.99793701,20.0271762 L12.2353027,25.4020333 M16.0537339,17.5783997 L17.568655,14.7768333 C19.0213191,13.3241692 21.3663339,13.3241692 22.7982457,14.7768333 C24.2509097,16.2294973 24.2509097,18.5745122 22.7982457,20.0271762 L19.5816324,25.4020333 M11.043502,11.9237102 C12.2257072,11.9237102 13.1840739,10.9653436 13.1840739,9.78313839 C13.1840739,8.6009332 12.2257072,7.64256654 11.043502,7.64256654 C9.86129685,7.64256654 8.90293019,8.6009332 8.90293019,9.78313839 C8.90293019,10.9653436 9.86129685,11.9237102 11.043502,11.9237102 Z M20.9897113,11.9237102 C22.1719165,11.9237102 23.1302832,10.9653436 23.1302832,9.78313839 C23.1302832,8.6009332 22.1719165,7.64256654 20.9897113,7.64256654 C19.8075061,7.64256654 18.8491395,8.6009332 18.8491395,9.78313839 C18.8491395,10.9653436 19.8075061,11.9237102 20.9897113,11.9237102 Z" id="icon" stroke-linecap="round" stroke-linejoin="round"></path>
                    </g>
                </g>
            </g>
        </g>
    </g>
</svg>