<?xml version="1.0" encoding="UTF-8"?>
<svg width="32px" height="32px" viewBox="0 0 32 32" version="1.1" xmlns="http://www.w3.org/2000/svg" xmlns:xlink="http://www.w3.org/1999/xlink">
    <title>trump-fortune-diap-square</title>
    <g id="trump" stroke="none" stroke-width="1" fill="none" fill-rule="evenodd">
        <g transform="translate(-400, -192)" id="fortune">
            <g transform="translate(400, 74)">
                <g id="trump-fortune-diap-square" transform="translate(0, 118)">
                    <rect id="Rectangle" fill="#000000" x="0" y="0" width="32" height="32"></rect>
                    <g id="icon" transform="translate(2.4614, 3.86)">
                        <path d="M18.5985987,0.603926143 C18.1544774,3.09853284 15.9992786,4.96290828 13.3671465,4.96290828 C10.7418618,4.96290828 8.59103208,3.10822029 8.13919507,0.623381931 M0,14.0431276 C2.22683354,12.7360732 5.13139903,13.510624 6.39004408,15.7858669 C7.69709855,18.0127005 6.92254775,20.917266 4.69571421,22.175911 M22.0135792,22.4996151 C19.8438566,21.2260822 19.0891704,18.4431771 20.3627033,16.2734544 C21.6362361,14.1037318 24.4191413,13.3490456 26.5888639,14.6225785 M5.04228028,1.94047095 C7.26911382,3.24752542 8.04366462,6.10368148 6.73661015,8.33051503 C5.42955568,10.5573486 2.57339961,11.3318994 0.34656607,10.0248449 M7.98669563,24.8530429 C7.98669563,21.8723187 10.4154339,19.4987791 13.3409594,19.4987791 C16.266485,19.4987791 18.6952233,21.8723187 18.6952233,24.8530429 M26.444174,9.83158721 C24.2744514,11.1051201 21.4443783,10.3504339 20.2180134,8.18071128 C18.9444805,6.01098863 19.6991666,3.18091561 21.8688893,1.95455064" id="stops" fill="#FFFFFF" fill-rule="nonzero"></path>
                        <path d="M1.20746766,12.3214484 C1.20746766,5.52712676 6.73459442,0 13.5289161,0 C20.3232378,0 25.8503645,5.50016516 25.8503645,12.3214484 C25.8503645,19.1427317 20.3501994,24.6428969 13.5289161,24.6428969 C6.70763282,24.6428969 1.20746766,19.1427317 1.20746766,12.3214484 Z" id="Path" stroke="#FFFFFF" stroke-width="2.5" stroke-linecap="round" stroke-linejoin="round"></path>
                    </g>
                </g>
            </g>
        </g>
    </g>
</svg>