<?xml version="1.0" encoding="UTF-8"?>
<svg width="32px" height="32px" viewBox="0 0 32 32" version="1.1" xmlns="http://www.w3.org/2000/svg" xmlns:xlink="http://www.w3.org/1999/xlink">
    <title>sephirot-06-beauty-diap-circle</title>
    <g id="zodiac" stroke="none" stroke-width="1" fill="none" fill-rule="evenodd">
        <g id="sephirot" transform="translate(-201, -232)">
            <g id="06-beauty" transform="translate(201, 77)">
                <g id="diap" transform="translate(0, 115)">
                    <g id="sephirot-06-beauty-diap-circle" transform="translate(0, 40)">
                        <circle id="Oval" fill="#000000" cx="16" cy="16" r="16"></circle>
                        <circle id="Oval" stroke="#FFFFFF" stroke-width="2.5" stroke-linecap="round" stroke-linejoin="round" cx="16" cy="16" r="11"></circle>
                        <path d="M14.0033143,9.67 C14.0033143,8.5640678 14.8973821,7.67 16.0033143,7.67 C17.1092465,7.67 18.0033143,8.5640678 18.0033143,9.67 C18.0033143,10.7759322 17.1092465,11.67 16.0033143,11.67 C14.8973821,11.67 14.0033143,10.7759322 14.0033143,9.67 Z M14.0033143,22.3227779 C14.0033143,21.2168457 14.8973821,20.3227779 16.0033143,20.3227779 C17.1092465,20.3227779 18.0033143,21.2168457 18.0033143,22.3227779 C18.0033143,23.4287101 17.1092465,24.3227779 16.0033143,24.3227779 C14.8973821,24.3227779 14.0033143,23.4287101 14.0033143,22.3227779 Z M10.1157978,12.939925 C9.33613675,12.160264 9.33613675,10.8933148 10.1157978,10.1094165 C10.8954588,9.3297555 12.1624079,9.3297555 12.9463062,10.1094165 C13.7259673,10.8890775 13.7259673,12.1560267 12.9463062,12.939925 C12.1666452,13.719586 10.8996961,13.719586 10.1157978,12.939925 L10.1157978,12.939925 Z M19.0603223,21.8833613 C18.2806613,21.1037003 18.2806613,19.8367512 19.0603223,19.0528529 C19.8399833,18.2731919 21.1069325,18.2731919 21.8908308,19.0528529 C22.6704918,19.8325139 22.6704918,21.099463 21.8908308,21.8833613 C21.1111698,22.6630224 19.8442206,22.6630224 19.0603223,21.8833613 Z M9.67615558,17.9963889 C8.57022338,17.9963889 7.67615558,17.1023211 7.67615558,15.9963889 C7.67615558,14.8904567 8.57022338,13.9963889 9.67615558,13.9963889 C10.7820878,13.9963889 11.6761556,14.8904567 11.6761556,15.9963889 C11.6761556,17.1023211 10.7820878,17.9963889 9.67615558,17.9963889 Z M22.330473,17.9963889 C21.2245408,17.9963889 20.330473,17.1023211 20.330473,15.9963889 C20.330473,14.8904567 21.2245408,13.9963889 22.330473,13.9963889 C23.4364052,13.9963889 24.330473,14.8904567 24.330473,15.9963889 C24.330473,17.1023211 23.4364052,17.9963889 22.330473,17.9963889 Z M12.9435087,21.8833613 C12.1644671,22.6630224 10.8985244,22.6630224 10.1152488,21.8833613 C9.33620717,21.1037003 9.33197325,19.8325139 10.1152488,19.0528529 C10.8985244,18.2731919 12.1602332,18.2731919 12.9435087,19.0528529 C13.7225504,19.8325139 13.7267843,21.099463 12.9435087,21.8833613 Z M21.8866796,12.9385679 C21.1079468,13.7179191 19.8425061,13.7221547 19.0595411,12.9385679 C18.2808083,12.1592167 18.2765761,10.892771 19.0595411,10.1091842 C19.8382738,9.32983295 21.1037146,9.32983295 21.8866796,10.1091842 C22.6696446,10.8885354 22.6696446,12.1549811 21.8866796,12.9385679 L21.8866796,12.9385679 Z M18.1224786,18.1172347 C16.9543795,19.2862615 15.0562184,19.2926149 13.8817709,18.1172347 C12.7136717,16.9482079 12.7073234,15.0485393 13.8817709,13.873159 C15.04987,12.7041322 16.9480311,12.7041322 18.1224786,13.873159 C19.2969262,15.0421859 19.2969262,16.9418544 18.1224786,18.1172347 L18.1224786,18.1172347 Z" id="icon" fill="#FFFFFF" fill-rule="nonzero"></path>
                    </g>
                </g>
            </g>
        </g>
    </g>
</svg>