<?xml version="1.0" encoding="UTF-8"?>
<svg width="32px" height="32px" viewBox="0 0 32 32" version="1.1" xmlns="http://www.w3.org/2000/svg" xmlns:xlink="http://www.w3.org/1999/xlink">
    <title>sephirot-06-beauty-plain-circle</title>
    <g id="zodiac" stroke="none" stroke-width="1" fill="none" fill-rule="evenodd">
        <g id="sephirot" transform="translate(-201, -152)">
            <g id="06-beauty" transform="translate(201, 77)">
                <g id="plain" transform="translate(0, 35)">
                    <g id="sephirot-06-beauty-plain-circle" transform="translate(0, 40)">
                        <circle id="Oval" stroke="#000000" stroke-width="2.5" cx="16" cy="16" r="14.75"></circle>
                        <ellipse id="Oval" stroke="#000000" stroke-width="2.5" stroke-linecap="round" stroke-linejoin="round" cx="16" cy="15.9990255" rx="11" ry="10.9990255"></ellipse>
                        <path d="M14.0033143,9.67407076 C14.0033143,8.56813856 14.8973821,7.67407076 16.0033143,7.67407076 C17.1092465,7.67407076 18.0033143,8.56813856 18.0033143,9.67407076 C18.0033143,10.780003 17.1092465,11.6740708 16.0033143,11.6740708 C14.8973821,11.6740708 14.0033143,10.780003 14.0033143,9.67407076 Z M14.0033143,22.3268486 C14.0033143,21.2209164 14.8973821,20.3268486 16.0033143,20.3268486 C17.1092465,20.3268486 18.0033143,21.2209164 18.0033143,22.3268486 C18.0033143,23.4327808 17.1092465,24.3268486 16.0033143,24.3268486 C14.8973821,24.3268486 14.0033143,23.4327808 14.0033143,22.3268486 Z M10.1157978,12.9439957 C9.33613675,12.1643347 9.33613675,10.8973856 10.1157978,10.1134873 C10.8954588,9.33382626 12.1624079,9.33382626 12.9463062,10.1134873 C13.7259673,10.8931483 13.7259673,12.1600974 12.9463062,12.9439957 C12.1666452,13.7236568 10.8996961,13.7236568 10.1157978,12.9439957 L10.1157978,12.9439957 Z M19.0603223,21.8874321 C18.2806613,21.1077711 18.2806613,19.8408219 19.0603223,19.0569236 C19.8399833,18.2772626 21.1069325,18.2772626 21.8908308,19.0569236 C22.6704918,19.8365846 22.6704918,21.1035338 21.8908308,21.8874321 C21.1111698,22.6670931 19.8442206,22.6670931 19.0603223,21.8874321 Z M9.67615558,18.0004597 C8.57022338,18.0004597 7.67615558,17.1063919 7.67615558,16.0004597 C7.67615558,14.8945275 8.57022338,14.0004597 9.67615558,14.0004597 C10.7820878,14.0004597 11.6761556,14.8945275 11.6761556,16.0004597 C11.6761556,17.1063919 10.7820878,18.0004597 9.67615558,18.0004597 Z M22.330473,18.0004597 C21.2245408,18.0004597 20.330473,17.1063919 20.330473,16.0004597 C20.330473,14.8945275 21.2245408,14.0004597 22.330473,14.0004597 C23.4364052,14.0004597 24.330473,14.8945275 24.330473,16.0004597 C24.330473,17.1063919 23.4364052,18.0004597 22.330473,18.0004597 Z M12.9435087,21.8874321 C12.1644671,22.6670931 10.8985244,22.6670931 10.1152488,21.8874321 C9.33620717,21.1077711 9.33197325,19.8365846 10.1152488,19.0569236 C10.8985244,18.2772626 12.1602332,18.2772626 12.9435087,19.0569236 C13.7225504,19.8365846 13.7267843,21.1035338 12.9435087,21.8874321 Z M21.8866796,12.9426387 C21.1079468,13.7219899 19.8425061,13.7262255 19.0595411,12.9426387 C18.2808083,12.1632875 18.2765761,10.8968417 19.0595411,10.1132549 C19.8382738,9.33390371 21.1037146,9.33390371 21.8866796,10.1132549 C22.6696446,10.8926061 22.6696446,12.1590519 21.8866796,12.9426387 L21.8866796,12.9426387 Z M18.1224786,18.1213054 C16.9543795,19.2903323 15.0562184,19.2966857 13.8817709,18.1213054 C12.7136717,16.9522786 12.7073234,15.05261 13.8817709,13.8772298 C15.04987,12.708203 16.9480311,12.708203 18.1224786,13.8772298 C19.2969262,15.0462566 19.2969262,16.9459252 18.1224786,18.1213054 L18.1224786,18.1213054 Z" id="icon" fill="#000000" fill-rule="nonzero"></path>
                    </g>
                </g>
            </g>
        </g>
    </g>
</svg>