<?xml version="1.0" encoding="UTF-8"?>
<svg width="32px" height="32px" viewBox="0 0 32 32" version="1.1" xmlns="http://www.w3.org/2000/svg" xmlns:xlink="http://www.w3.org/1999/xlink">
    <title>astro-saturn-plain-circle</title>
    <g id="astro" stroke="none" stroke-width="1" fill="none" fill-rule="evenodd">
        <g transform="translate(-240, -152)" id="saturn" stroke="#000000" stroke-width="2.5">
            <g transform="translate(240, 75)">
                <g id="plain" transform="translate(0, 37)">
                    <g id="astro-saturn-plain-circle" transform="translate(0, 40)">
                        <circle id="Oval" cx="16" cy="16" r="14.75"></circle>
                        <path d="M12.6008463,13.3973881 C13.4217418,12.483209 15.4925373,11.3544776 16.8171642,11.3544776 C19.2798507,11.3544776 21.2574627,13.3507463 21.2574627,15.7947761 C21.2574627,17.0074627 20.8470149,17.9029851 20.0634328,18.9850746 M24,22.7723881 C23.5335821,23.369403 22.8059701,23.7425373 21.9850746,23.7425373 C20.5671642,23.7425373 19.4291045,22.5858209 19.4291045,21.1865672 C19.4291045,20.4029851 19.6716418,19.6007463 20.0634328,18.9850746 M12.6007463,20.7947761 L12.6007463,6 M9,7.80970149 L18.0298507,7.80970149" id="icon" stroke-linecap="round" stroke-linejoin="round"></path>
                    </g>
                </g>
            </g>
        </g>
    </g>
</svg>