<?xml version="1.0" encoding="UTF-8"?>
<svg width="32px" height="32px" viewBox="0 0 32 32" version="1.1" xmlns="http://www.w3.org/2000/svg" xmlns:xlink="http://www.w3.org/1999/xlink">
    <title>astro-sun-diap-square</title>
    <g id="astro" stroke="none" stroke-width="1" fill="none" fill-rule="evenodd">
        <g transform="translate(0, -192)" id="sun">
            <g transform="translate(0, 75)">
                <g id="astro-sun-diap-square" transform="translate(0, 117)">
                    <rect id="Rectangle" fill="#000000" x="0" y="0" width="32" height="32"></rect>
                    <path d="M5,16 C5,9.92537313 9.92537313,5 16,5 C22.0746269,5 27,9.92537313 27,16 C27,22.0746269 22.0746269,27 16,27 C9.92537313,27 5,22.0746269 5,16 Z M11.989339,16 C11.989339,13.771855 13.7953092,11.9658849 16.0234542,11.9658849 C18.2515991,11.9658849 20.0575693,13.771855 20.0575693,16 C20.0575693,18.228145 18.2515991,20.0341151 16.0234542,20.0341151 C13.7953092,20.0341151 11.989339,18.228145 11.989339,16 Z" id="icon" stroke="#FFFFFF" stroke-width="2.5" stroke-linecap="round" stroke-linejoin="round"></path>
                </g>
            </g>
        </g>
    </g>
</svg>