<?xml version="1.0" encoding="UTF-8"?>
<svg width="32px" height="32px" viewBox="0 0 32 32" version="1.1" xmlns="http://www.w3.org/2000/svg" xmlns:xlink="http://www.w3.org/1999/xlink">
    <title>astro-mercury-plain-circle</title>
    <g id="astro" stroke="none" stroke-width="1" fill="none" fill-rule="evenodd">
        <g transform="translate(-40, -152)" id="mercury" stroke="#000000" stroke-width="2.5">
            <g transform="translate(40, 75)">
                <g id="plain" transform="translate(0, 37)">
                    <g id="astro-mercury-plain-circle" transform="translate(0, 40)">
                        <circle id="Oval" cx="16" cy="16" r="14.75"></circle>
                        <path d="M12.1669643,24.4205357 L19.51875,24.4205357 M15.925,26.9669643 L15.925,21.5866071 M10.75,6 C10.75,8.85446429 13.0705357,11.175 15.925,11.175 C18.7794643,11.175 21.1,8.85446429 21.1,6 M21.1,16.4116071 C21.1,13.5571429 18.7794643,11.2366071 15.925,11.2366071 C13.0705357,11.2366071 10.75,13.5571429 10.75,16.4116071 C10.75,19.2660714 13.0705357,21.5866071 15.925,21.5866071 C18.7794643,21.5866071 21.1,19.2660714 21.1,16.4116071 Z" id="icon" stroke-linecap="round" stroke-linejoin="round"></path>
                    </g>
                </g>
            </g>
        </g>
    </g>
</svg>