<?xml version="1.0" encoding="UTF-8"?>
<svg width="32px" height="32px" viewBox="0 0 32 32" version="1.1" xmlns="http://www.w3.org/2000/svg" xmlns:xlink="http://www.w3.org/1999/xlink">
    <title>zodiac-scorpio-diap-square</title>
    <g id="zodiac" stroke="none" stroke-width="1" fill="none" fill-rule="evenodd">
        <g transform="translate(-280, -192)" id="scorpio">
            <g transform="translate(280, 75)">
                <g id="zodiac-scorpio-diap-square" transform="translate(0, 117)">
                    <rect id="Rectangle" fill="#000000" x="0" y="0" width="32" height="32"></rect>
                    <path d="M5,10.0485588 C5.81123988,8.68285294 6.73851753,8 7.78183293,8 C8.82514834,8 9.7074723,8.54890569 10.4288048,9.64671708 L10.4288048,24.3896108 M10.4288048,9.64671708 C11.0157546,8.54890569 11.8968748,8 13.0721653,8 C14.2474558,8 15.0778838,8.54890569 15.5634491,9.64671708 L15.5634491,24.3896108 M15.6818832,9.64671708 C16.268833,8.54890569 17.1499531,8 18.3252437,8 C19.5005342,8 20.3309621,8.54890569 20.8165275,9.64671708 C20.8165275,17.3868419 20.8165275,21.2569043 20.8165275,21.2569043 C20.8165275,22.499387 21.9886686,24.41 23.5075384,24.41 C25.0264082,24.41 26.1622363,22.7219234 26.1622363,21.2569043 C26.1622363,20.2802249 26.1622363,19.2067074 26.1622363,18.036352 M24.2305868,18.036352 L26.182125,16.1948054 L28.0337059,18.036352" id="icon" stroke="#FFFFFF" stroke-width="2.5" stroke-linecap="round" stroke-linejoin="round"></path>
                </g>
            </g>
        </g>
    </g>
</svg>