<?xml version="1.0" encoding="UTF-8"?>
<svg width="32px" height="32px" viewBox="0 0 32 32" version="1.1" xmlns="http://www.w3.org/2000/svg" xmlns:xlink="http://www.w3.org/1999/xlink">
    <title>zodiac-capricorn-diap-circle</title>
    <g id="zodiac" stroke="none" stroke-width="1" fill="none" fill-rule="evenodd">
        <g transform="translate(-360, -232)" id="capricorn">
            <g transform="translate(360, 75)">
                <g id="diap" transform="translate(0, 117)">
                    <g id="zodiac-capricorn-diap-circle" transform="translate(0, 40)">
                        <circle id="Oval" fill="#000000" cx="16" cy="16" r="16"></circle>
                        <path d="M4,17.0806857 L8.15397758,12.6090733 L11.0545708,25.3272638 L14.4551694,12.6090733 L21.5314883,12.6090733 C23.3565335,12.6090733 24.836025,11.1295818 24.836025,9.30453664 C24.836025,7.47949145 23.3565335,6 21.5314883,6 C19.7064431,6 18.2269517,7.47949145 18.2269517,9.30453664 C18.2269517,9.82834461 18.3488252,10.3236875 18.5657631,10.763756 C22.1491987,16.8579864 24.124491,20.1843894 24.4916398,20.742965 C25.042363,21.5808284 24.9992078,22.3821224 24.9992078,22.944472 C24.9992078,23.5068217 23.7209423,25.615242 22.0806916,25.615242 C20.4404408,25.615242 19.337842,25.2459951 18.7823968,23.9673758 C18.4121001,23.114963 18.2269517,22.5766472 18.2269517,22.3524285" id="icon" stroke="#FFFFFF" stroke-width="2.5" stroke-linecap="round" stroke-linejoin="round"></path>
                    </g>
                </g>
            </g>
        </g>
    </g>
</svg>