<?xml version="1.0" encoding="UTF-8"?>
<svg width="32px" height="32px" viewBox="0 0 32 32" version="1.1" xmlns="http://www.w3.org/2000/svg" xmlns:xlink="http://www.w3.org/1999/xlink">
    <title>zodiac-capricorn-plain-circle</title>
    <g id="zodiac" stroke="none" stroke-width="1" fill="none" fill-rule="evenodd">
        <g transform="translate(-360, -152)" id="capricorn" stroke="#000000" stroke-width="2.5">
            <g transform="translate(360, 75)">
                <g id="plain" transform="translate(0, 37)">
                    <g id="zodiac-capricorn-plain-circle" transform="translate(0, 40)">
                        <circle id="Oval" cx="16" cy="16" r="14.75"></circle>
                        <path d="M5,17.0595214 L8.77115889,13 L11.4044417,24.5461184 L14.4916509,13 L20.9158365,13 C22.5726908,13 23.9158365,11.6568542 23.9158365,10 C23.9158365,8.34314575 22.5726908,7 20.9158365,7 C19.2589823,7 17.9158365,8.34314575 17.9158365,10 C17.9158365,10.4755353 18.0264785,10.9252288 18.223424,11.3247419 C21.4766205,16.8573454 23.2698755,19.8771966 23.6031889,20.3842955 C24.103159,21.1449438 24.0639809,21.8723929 24.0639809,22.382918 C24.0639809,22.8934431 22.9035167,24.8075574 21.4144268,24.8075574 C19.9253368,24.8075574 18.9243504,24.4723393 18.4200934,23.3115539 C18.0839222,22.537697 17.9158365,22.0489908 17.9158365,21.8454355" id="icon" stroke-linecap="round" stroke-linejoin="round"></path>
                    </g>
                </g>
            </g>
        </g>
    </g>
</svg>