<?xml version="1.0" encoding="UTF-8"?>
<svg width="32px" height="32px" viewBox="0 0 32 32" version="1.1" xmlns="http://www.w3.org/2000/svg" xmlns:xlink="http://www.w3.org/1999/xlink">
    <title>zodiac-cancer-plain-square</title>
    <g id="zodiac" stroke="none" stroke-width="1" fill="none" fill-rule="evenodd">
        <g transform="translate(-120, -112)" id="cancer" stroke="#000000" stroke-width="2.5">
            <g transform="translate(120, 75)">
                <g id="zodiac-cancer-plain-square" transform="translate(0, 37)">
                    <rect id="Rectangle" x="1.25" y="1.25" width="29.5" height="29.5"></rect>
                    <path d="M9.90384615,23.2505172 C12.197952,23.2505172 14.0576923,21.3907769 14.0576923,19.0966711 C14.0576923,16.8025652 12.197952,14.9428249 9.90384615,14.9428249 C7.60974027,14.9428249 5.75,16.8025652 5.75,19.0966711 C5.75,21.3907769 7.60974027,23.2505172 9.90384615,23.2505172 Z M22.5961538,17.4812864 C24.8902597,17.4812864 26.75,15.6215462 26.75,13.3274403 C26.75,11.0333344 24.8902597,9.17359413 22.5961538,9.17359413 C20.302048,9.17359413 18.4423077,11.0333344 18.4423077,13.3274403 C18.4423077,15.6215462 20.302048,17.4812864 22.5961538,17.4812864 Z M26.4534339,21.0464556 C18.2598689,24.2363573 12.1015526,24.8276063 7.97848512,22.8202025 M6.00291712,11.1957782 C14.7993157,7.92584684 20.9601146,7.42523612 24.4853137,9.69394601" id="icon" stroke-linecap="round" stroke-linejoin="round"></path>
                </g>
            </g>
        </g>
    </g>
</svg>