<?xml version="1.0" encoding="UTF-8"?>
<svg width="32px" height="32px" viewBox="0 0 32 32" version="1.1" xmlns="http://www.w3.org/2000/svg" xmlns:xlink="http://www.w3.org/1999/xlink">
    <title>zodiac-virgo-plain-circle</title>
    <g id="zodiac" stroke="none" stroke-width="1" fill="none" fill-rule="evenodd">
        <g transform="translate(-200, -152)" id="virgo" stroke="#000000" stroke-width="2.5">
            <g transform="translate(200, 75)">
                <g id="plain" transform="translate(0, 37)">
                    <g id="zodiac-virgo-plain-circle" transform="translate(0, 40)">
                        <circle id="Oval" cx="16" cy="16" r="14.75"></circle>
                        <path d="M5.5,10.8328969 C6.22583664,9.61096563 7.05549517,9 7.9889756,9 C8.92245602,9 9.71189336,9.49111967 10.3572876,10.473359 L10.3572876,23.6641952 M10.3572876,10.473359 C10.8824463,9.49111967 11.6708066,9 12.7223685,9 C13.7739303,9 14.516935,9.49111967 14.9513825,10.473359 L14.9513825,23.6641952 M14.9513825,10.618773 C16.0897163,9.539591 16.9827877,9 17.6305966,9 C18.2784056,9 19.0655667,9.63340737 19.99208,10.9002221 M25.5329649,22.264832 C22.9074664,20.0912596 21.5060012,18.8286179 21.3285693,18.4769069 C21.0624213,17.9493405 19.3395075,16.1745881 19.3395075,13.3689993 C19.3395075,10.5634105 21.4800974,9.346456 23.0699372,9.346456 C24.6597771,9.346456 26.5,10.6473781 26.5,13.3689993 C26.5,16.0906205 24.9104384,17.7600694 24.3697964,18.4769069 C24.0093684,18.9547986 22.4974564,20.2605 19.8340605,22.3940111" id="icon" stroke-linecap="round" stroke-linejoin="round"></path>
                    </g>
                </g>
            </g>
        </g>
    </g>
</svg>