<?xml version="1.0" encoding="UTF-8"?>
<svg width="32px" height="32px" viewBox="0 0 32 32" version="1.1" xmlns="http://www.w3.org/2000/svg" xmlns:xlink="http://www.w3.org/1999/xlink">
    <title>zodiac-leo-plain-square</title>
    <g id="zodiac" stroke="none" stroke-width="1" fill="none" fill-rule="evenodd">
        <g transform="translate(-160, -112)" id="leo" stroke="#000000" stroke-width="2.5">
            <g transform="translate(160, 75)">
                <g id="zodiac-leo-plain-square" transform="translate(0, 37)">
                    <rect id="Rectangle" x="1.25" y="1.25" width="29.5" height="29.5"></rect>
                    <path d="M11.240314,17.2984055 C9.21471299,17.6899114 7.25,19.1789322 7.25,21.25 C7.25,23.3210678 8.92893219,25 11,25 C12.7369056,25 14.9168255,23.182818 14.7499693,21.25 C14.583113,19.317182 10.4201122,14.4214283 10.4201122,11.9627409 C10.4201122,9.5040536 12.4134052,6.40763429 16,6.40763429 C19.5865948,6.40763429 21.9659235,9.40910947 21.9659235,11.9627409 C21.9659235,13.6651619 20.8974706,16.338388 18.7605649,19.9824193 C17.6531484,21.8602033 17.9765204,23.5327302 19.7306809,25 C21.4848414,26.4672698 23.6901323,26.2026303 26.3465537,24.2060815" id="icon" stroke-linecap="round" stroke-linejoin="round"></path>
                </g>
            </g>
        </g>
    </g>
</svg>