<?xml version="1.0" encoding="UTF-8"?>
<svg width="32px" height="32px" viewBox="0 0 32 32" version="1.1" xmlns="http://www.w3.org/2000/svg" xmlns:xlink="http://www.w3.org/1999/xlink">
    <title>zodiac-scorpio-plain-square</title>
    <g id="zodiac" stroke="none" stroke-width="1" fill="none" fill-rule="evenodd">
        <g transform="translate(-280, -112)" id="scorpio" stroke="#000000" stroke-width="2.5">
            <g transform="translate(280, 75)">
                <g id="zodiac-scorpio-plain-square" transform="translate(0, 37)">
                    <rect id="Rectangle" x="1.25" y="1.25" width="29.5" height="29.5"></rect>
                    <path d="M6,10.8323725 C6.72562899,9.61079084 7.55505017,9 8.48826354,9 C9.4214769,9 10.2106884,9.49097917 10.855898,10.4729375 L10.855898,23.66 M10.855898,10.4729375 C11.3809065,9.49097917 12.1690412,9 13.2203023,9 C14.2715633,9 15.0143554,9.49097917 15.4486786,10.4729375 L15.4486786,23.66 M15.5546142,10.4729375 C16.0796226,9.49097917 16.8677574,9 17.9190184,9 C18.9702794,9 19.7130715,9.49097917 20.1473947,10.4729375 C20.1473947,17.3962398 20.1473947,20.8578909 20.1473947,20.8578909 C20.1473947,21.9692533 21.1958387,23.6782376 22.5544208,23.6782376 C23.9130029,23.6782376 24.928966,22.1683052 24.928966,20.8578909 C24.928966,19.9842814 24.928966,19.0240532 24.928966,17.9772065 M23.2011652,17.9772065 L24.9467558,16.33 L26.6029376,17.9772065" id="icon" stroke-linecap="round" stroke-linejoin="round"></path>
                </g>
            </g>
        </g>
    </g>
</svg>