<?xml version="1.0" encoding="UTF-8"?>
<svg width="32px" height="32px" viewBox="0 0 32 32" version="1.1" xmlns="http://www.w3.org/2000/svg" xmlns:xlink="http://www.w3.org/1999/xlink">
    <title>zodiac-cancer-diap-circle</title>
    <g id="zodiac" stroke="none" stroke-width="1" fill="none" fill-rule="evenodd">
        <g transform="translate(-120, -232)" id="cancer">
            <g transform="translate(120, 75)">
                <g id="diap" transform="translate(0, 117)">
                    <g id="zodiac-cancer-diap-circle" transform="translate(0, 40)">
                        <circle id="Oval" fill="#000000" cx="16" cy="16" r="16"></circle>
                        <path d="M9.25,23.4963936 C11.7352814,23.4963936 13.75,21.481675 13.75,18.9963936 C13.75,16.5111123 11.7352814,14.4963936 9.25,14.4963936 C6.76471863,14.4963936 4.75,16.5111123 4.75,18.9963936 C4.75,21.481675 6.76471863,23.4963936 9.25,23.4963936 Z M23,17.2463936 C25.4852814,17.2463936 27.5,15.231675 27.5,12.7463936 C27.5,10.2611123 25.4852814,8.24639364 23,8.24639364 C20.5147186,8.24639364 18.5,10.2611123 18.5,12.7463936 C18.5,15.231675 20.5147186,17.2463936 23,17.2463936 Z M27.1787201,21.1086602 C18.3023579,24.5643871 11.6308486,25.2049068 7.16419222,23.0302194 M5.02399355,10.437093 C14.5534253,6.89466741 21.2276241,6.35233913 25.0465899,8.81010818" id="icon" stroke="#FFFFFF" stroke-width="2.5" stroke-linecap="round" stroke-linejoin="round"></path>
                    </g>
                </g>
            </g>
        </g>
    </g>
</svg>