<?xml version="1.0" encoding="UTF-8"?>
<svg width="32px" height="32px" viewBox="0 0 32 32" version="1.1" xmlns="http://www.w3.org/2000/svg" xmlns:xlink="http://www.w3.org/1999/xlink">
    <title>zodiac-virgo-diap-circle</title>
    <g id="zodiac" stroke="none" stroke-width="1" fill="none" fill-rule="evenodd">
        <g transform="translate(-200, -232)" id="virgo">
            <g transform="translate(200, 75)">
                <g id="diap" transform="translate(0, 117)">
                    <g id="zodiac-virgo-diap-circle" transform="translate(0, 40)">
                        <circle id="Oval" fill="#000000" cx="16" cy="16" r="16"></circle>
                        <path d="M4.5,10.0510989 C5.31224576,8.68369963 6.24067317,8 7.28528222,8 C8.32989126,8 9.21330924,8.5495863 9.93553615,9.64875889 L9.93553615,24.4099327 M9.93553615,9.64875889 C10.5232137,8.5495863 11.4054264,8 12.5821742,8 C13.7589221,8 14.5903797,8.5495863 15.0765471,9.64875889 L15.0765471,24.4099327 M15.0765471,9.81148406 C16.3503968,8.60382802 17.3497862,8 18.0747153,8 C18.7996443,8 19.6805151,8.70881301 20.7173277,10.126439 M26.9178417,22.8439787 C23.9797839,20.4116476 22.4114776,18.9986914 22.2129228,18.6051101 C21.9150905,18.0147382 19.987068,16.0287057 19.987068,12.8891183 C19.987068,9.74953081 22.38249,8.38770076 24.1615964,8.38770076 C25.9407029,8.38770076 28,9.84349452 28,12.8891183 C28,15.934742 26.2212048,17.8029348 25.6162007,18.6051101 C25.2128646,19.1398936 23.5209631,20.6010357 20.5404963,22.9885363" id="icon" stroke="#FFFFFF" stroke-width="2.5" stroke-linecap="round" stroke-linejoin="round"></path>
                    </g>
                </g>
            </g>
        </g>
    </g>
</svg>