<?xml version="1.0" encoding="UTF-8"?>
<svg width="32px" height="32px" viewBox="0 0 32 32" version="1.1" xmlns="http://www.w3.org/2000/svg" xmlns:xlink="http://www.w3.org/1999/xlink">
    <title>zodiac-leo-diap-circle</title>
    <g id="zodiac" stroke="none" stroke-width="1" fill="none" fill-rule="evenodd">
        <g transform="translate(-160, -232)" id="leo">
            <g transform="translate(160, 75)">
                <g id="diap" transform="translate(0, 117)">
                    <g id="zodiac-leo-diap-circle" transform="translate(0, 40)">
                        <circle id="Oval" fill="#000000" cx="16" cy="16" r="16"></circle>
                        <path d="M9.99031403,15.8907712 C7.96471299,16.2822771 6,17.7712979 6,19.8423657 C6,21.9134335 7.67893219,23.5923657 9.75,23.5923657 C11.4869056,23.5923657 13.6668255,21.7751837 13.4999693,19.8423657 C13.333113,17.9095477 9.1701122,13.013794 9.1701122,10.5551067 C9.1701122,8.09641931 11.1634052,5 14.75,5 C18.3365948,5 20.7159235,8.00147518 20.7159235,10.5551067 C20.7159235,12.2575276 19.6474706,14.9307537 17.5105649,18.574785 C16.4031484,20.452569 16.7265204,22.1250959 18.4806809,23.5923657 C20.2348414,25.0596355 22.4401323,24.794996 25.0965537,22.7984472" id="icon" stroke="#FFFFFF" stroke-width="2.5" stroke-linecap="round" stroke-linejoin="round"></path>
                    </g>
                </g>
            </g>
        </g>
    </g>
</svg>