<?xml version="1.0" encoding="UTF-8"?>
<svg width="32px" height="32px" viewBox="0 0 32 32" version="1.1" xmlns="http://www.w3.org/2000/svg" xmlns:xlink="http://www.w3.org/1999/xlink">
    <title>zodiac-taurus-plain-circle</title>
    <g id="zodiac" stroke="none" stroke-width="1" fill="none" fill-rule="evenodd">
        <g transform="translate(-40, -152)" id="taurus" stroke="#000000" stroke-width="2.5">
            <g transform="translate(40, 75)">
                <g id="plain" transform="translate(0, 37)">
                    <g id="zodiac-taurus-plain-circle" transform="translate(0, 40)">
                        <circle id="Oval" cx="16" cy="16" r="14.75"></circle>
                        <path d="M16.2461942,25.7589612 C19.4239334,25.7589612 22,23.1828946 22,20.0051554 C22,16.8274163 19.4239334,14.2513497 16.2461942,14.2513497 C13.0684551,14.2513497 10.4923885,16.8274163 10.4923885,20.0051554 C10.4923885,23.1828946 13.0684551,25.7589612 16.2461942,25.7589612 Z M10,8.05856783 C10.0135867,8.32438618 10.044462,8.58563877 10.0915235,8.84122325 C10.6058884,11.6346685 13.0538085,13.7510187 15.9960288,13.7510187 C18.9786099,13.7510187 21.4532365,11.5762067 21.9206067,8.72588451 C21.9595594,8.48832597 21.9845691,8.24607513 21.9947678,8" id="icon" stroke-linecap="round" stroke-linejoin="round"></path>
                    </g>
                </g>
            </g>
        </g>
    </g>
</svg>