<?xml version="1.0" encoding="UTF-8"?>
<svg width="160px" height="227px" viewBox="0 0 160 227" version="1.1" xmlns="http://www.w3.org/2000/svg" xmlns:xlink="http://www.w3.org/1999/xlink">
    <title>pips-clubs</title>
    <g id="pips" stroke="none" stroke-width="1" fill="none" fill-rule="evenodd">
        <g transform="translate(-403, -75)" fill="#282A26" fill-rule="nonzero" id="pips-clubs">
            <g transform="translate(403, 75)">
                <path d="M80.0103187,37 C101.999846,37 119.82588,54.826034 119.82588,76.8155614 C119.82588,89.5063305 113.888446,100.810337 104.639897,108.101262 C109.217016,106.264681 114.213967,105.255248 119.446684,105.255248 C141.436212,105.255248 159.262246,123.081282 159.262246,145.07081 C159.262246,167.060337 141.436212,184.886371 119.446684,184.886371 C102.571604,184.886371 87.5828656,172.274422 81.7865326,157.45281 L82.3524105,169.372214 L83.0303845,174.796005 L85.7422803,188.355484 L89.1321501,199.203068 L92.5220199,205.982807 L98.6237855,214.796469 L102.691629,217.508365 L110.149343,220.22026 L110.827317,221.576208 L111.505291,227 L48.5153467,227 L49.1933207,221.576208 L49.8712946,220.22026 L57.3290081,217.508365 L61.3968519,214.796469 L67.4986175,205.982807 L70.8884873,199.203068 L74.278357,188.355484 L76.9902529,174.796005 L77.6682268,169.372214 L78.2627951,157.45281 C73.0561126,173.380132 57.4822531,184.886371 39.8155614,184.886371 C17.826034,184.886371 -5.68434189e-14,167.060337 -5.68434189e-14,145.07081 C-5.68434189e-14,123.081282 17.826034,105.255248 39.8155614,105.255248 C45.7145608,105.255248 51.3139319,106.538109 56.3499087,108.840065 C46.5487742,101.588357 40.1947572,89.9439891 40.1947572,76.8155614 C40.1947572,54.826034 58.0207913,37 80.0103187,37 Z" id="icon"></path>
            </g>
        </g>
    </g>
</svg>