<?xml version="1.0" encoding="UTF-8"?>
<svg width="166px" height="228px" viewBox="0 0 166 228" version="1.1" xmlns="http://www.w3.org/2000/svg" xmlns:xlink="http://www.w3.org/1999/xlink">
    <title>pips-hearts</title>
    <g id="pips" stroke="none" stroke-width="1" fill="none" fill-rule="evenodd">
        <g transform="translate(0, -75)" fill="#D3403D" fill-rule="nonzero" id="pips-hearts">
            <g transform="translate(0, 75)">
                <path d="M43.7017944,37.4265171 C49.3845579,38.268408 50.5842264,38.6781793 54.9610537,40.2413319 C59.337881,41.8044845 59.5919705,41.8634217 63.4054981,44.4635541 C67.2190257,47.0636866 67.3036916,47.3092835 70.4425352,50.7968875 C72.5350975,53.1219568 74.4116408,55.7022037 76.0721648,58.5376282 L82.916253,72.2274496 L89.7624005,58.5376282 C91.3858271,55.7434231 93.2623703,53.1631762 95.3920301,50.7968875 C98.5865199,47.2474544 98.501854,47.1411995 102.429067,44.4635541 C106.35628,41.7859088 105.398487,42.1966978 110.873512,40.2413319 C116.348536,38.285966 118.315534,37.9920336 122.132771,37.4265171 C125.950007,36.8610006 127.398949,37.2890414 129.873512,37.4265171 C132.348075,37.5639928 131.587346,37.327198 134.799438,38.1302208 C138.011529,38.9332436 137.536913,38.7272867 141.132771,40.2413319 C144.728628,41.7553772 144.75555,41.4237792 148.169808,43.7598504 C151.584066,46.0959217 151.800219,46.517625 154.503141,49.3894801 C157.206064,52.2613351 156.485922,50.4671969 159.429067,55.7228134 C162.372212,60.9784298 162.902172,61.9779115 164.354993,66.9820727 C165.807814,71.9862338 165.622084,74.0297065 165.7624,77.5376282 C165.902717,81.0455499 165.809981,80.6304229 165.058697,84.5746652 C164.307413,88.5189075 165.487538,85.1573572 162.947586,92.315406 C160.407633,99.4734548 160.026357,100.813361 157.317956,106.38948 C154.609555,111.965599 155.335689,110.418437 150.984623,116.945036 C146.633557,123.471635 147.060203,122.522356 141.836475,129.611702 C136.612746,136.701049 136.886051,136.272537 131.280919,143.685776 C125.675787,151.099016 123.621972,153.61698 120.02166,158.463554 C116.421348,163.310128 119.413322,158.901954 112.984623,168.315406 C106.555924,177.728858 106.173916,177.200566 100.317956,187.315406 C94.461996,197.430246 93.3523024,199.685886 89.7624005,208.426517 C87.3691326,214.253604 85.4925894,220.35237 84.1327709,226.722813 L83.1091104,227.233684 L83.1092018,227.426517 L82.916253,227.328145 L82.7253635,227.426517 L82.7253635,227.233684 L81.7017944,226.722813 C80.9505018,221.833998 79.0739586,215.735232 76.0721648,208.426517 C71.5694741,197.463444 71.2717603,197.256122 65.5166092,187.315406 C59.7614582,177.37469 56.2730953,173.32788 52.8499426,168.315406 C49.4267898,163.302932 51.3607415,165.931795 45.8129055,158.463554 C40.2650696,150.995313 39.8559213,150.698463 34.5536463,143.685776 C29.2513713,136.67309 28.6262137,135.892726 23.9980907,129.611702 C19.3699678,123.330678 18.2396173,122.029548 14.8499426,116.945036 C11.4602678,111.860523 11.7896899,113.128176 8.51660925,106.38948 C5.24352858,99.6507846 4.2173972,96.0647646 2.88697962,92.315406 C1.55656204,88.5660473 1.43199167,88.0193118 0.775868506,84.5746652 C0.119745346,81.1300187 -0.13937018,82.8260028 0.0721648026,77.5376282 C0.283699786,72.2492536 -0.234273489,72.8853189 1.47957221,66.9820727 C3.19341791,61.0788264 4.42271742,59.2634932 6.40549814,55.7228134 C8.38827885,52.1821335 8.40471683,52.4991065 11.3314241,49.3894801 C14.2581313,46.2798536 14.3938302,45.9978532 17.6647574,43.7598504 C20.9356846,41.5218476 21.6124667,41.5421015 24.7017944,40.2413319 C27.7911222,38.9405623 28.6175895,38.7346054 31.0351278,38.1302208 C33.4526661,37.5258362 32.1022834,37.6408932 35.9610537,37.4265171 C39.819824,37.212141 38.019031,36.5846262 43.7017944,37.4265171 Z" id="icon"></path>
            </g>
        </g>
    </g>
</svg>