<?xml version="1.0" encoding="UTF-8"?>
<svg width="151px" height="230px" viewBox="0 0 151 230" version="1.1" xmlns="http://www.w3.org/2000/svg" xmlns:xlink="http://www.w3.org/1999/xlink">
    <title>pips-spades</title>
    <g id="pips" stroke="none" stroke-width="1" fill="none" fill-rule="evenodd">
        <g transform="translate(-608, -72)" fill="#282A26" fill-rule="nonzero" id="pips-spades">
            <g transform="translate(608, 72)">
                <path d="M71.2007784,51.4889927 L75.068,40.003 L78.9364589,51.4889927 C80.6128534,55.9506096 82.3890824,59.9471247 84.2651456,63.4785379 L85.2951048,65.3995353 C86.8990877,68.346923 90.1428354,74.0202571 95.3414864,79.6925021 L97.5868626,82.1289417 L99.4706137,84.1474584 L100.4326,85.1644254 C104.707724,89.6631302 108.252262,93.1165456 110.901849,95.643991 L115.397474,99.9155037 L115.533997,100.037503 C115.736503,100.211586 115.688921,100.125902 115.601381,99.9937842 L115.472646,99.7978252 C115.292066,99.5020517 115.42684,99.4952795 118.448834,102.388575 L125.615796,109.340195 C130.545228,114.148587 133.986921,117.580482 136.38146,120.203867 L136.885928,120.761921 L137.451332,121.400578 C139.322664,123.539465 140.109406,124.71911 141.230979,126.611967 L143.648794,130.734086 C145.561733,134.052627 146.444163,135.998394 147.543301,138.746239 C148.367655,140.807123 149.033741,143.249438 149.541559,146.073183 C150.335797,151.752202 150.335797,156.414803 149.541559,160.060986 L149.206388,161.561019 L149.046157,162.237223 C148.356786,165.065957 148.057316,165.137905 146.624267,167.90763 L146.21113,168.720102 L144.987017,171.183055 C144.187106,172.768918 143.817564,173.3265 142.419805,175.007814 L139.957647,177.944393 L139.661451,178.28372 C138.914707,179.119249 138.457966,179.448446 136.973289,180.433778 L135.553756,181.375733 C132.516547,183.400539 131.058341,184.09349 129.271349,184.758985 L127.103533,185.538756 C125.475645,186.148381 126.136195,186.10796 124.687682,186.382282 L122.898125,186.70442 C119.15761,187.366221 119.496731,187.690481 115.293534,187.438895 L112.998608,187.283848 C108.965264,186.995458 107.979493,186.825161 104.148858,185.560491 L102.488287,185.005235 L101.421239,184.636505 C98.5752602,183.628598 97.6150704,183.034857 94.2564334,180.709647 C90.5998826,178.178189 88.7242095,175.947523 86.9056737,174.041785 L86.2634032,173.382703 C84.9006563,172.019956 83.5684846,170.465756 82.2668881,168.720102 L76.9382013,160.060986 L76.9382013,172.716617 C76.9440662,175.591259 77.3312804,179.26431 78.0998438,183.735772 L78.5341165,186.154277 L78.7160338,187.125029 C79.5445088,191.487388 80.0995244,193.572864 80.9337431,196.427653 L81.9283386,199.798486 L82.1529781,200.540194 C83.0728254,203.539542 83.3462056,203.894843 84.9312315,207.353081 L85.3324649,208.248643 L85.5831525,208.831826 C86.621073,211.288556 86.5235274,211.594447 88.6066619,214.27059 L89.8261018,215.806599 L90.2059602,216.270052 C91.8213786,218.213486 92.2530333,218.322721 94.9225192,220.008712 C97.0946598,221.380591 99.314946,222.268705 101.583378,222.673056 L104.247721,223.339142 L104.247721,230 L45.8895162,230 L45.8895162,223.339142 L48.5538595,222.673056 C50.8222913,222.268705 53.0425774,221.380591 55.214718,220.008712 L57.0872103,218.836604 C58.365683,218.019105 58.903696,217.544064 60.3111354,215.806599 L61.5305754,214.27059 L61.958946,213.713071 C63.7372123,211.363269 63.5804391,211.048824 64.8047724,208.248643 L65.2060058,207.353081 L66.5641988,204.41287 C67.1635499,203.082595 67.4952053,202.180114 68.2088986,199.798486 L69.3781832,195.826577 C70.1753354,193.066148 70.7327604,190.857447 71.6031208,186.154277 L72.0373934,183.735772 C72.8059569,179.26431 73.1931711,175.591259 73.1990359,172.716617 L73.1990359,160.060986 L67.8703491,168.720102 C66.7314522,170.247549 65.5691461,171.628415 64.3834309,172.862698 L63.2315636,174.041785 L61.7166821,175.651221 C60.2739626,177.170454 58.5528986,178.859735 55.8808039,180.709647 L54.8074133,181.448667 C51.9452255,183.402874 50.9871498,183.873184 47.6489499,185.005235 L45.9883794,185.560491 L45.1815613,185.824007 C42.1224455,186.809957 40.9662529,187.002179 37.5745369,187.252229 L34.8437028,187.438895 L34.0845855,187.480462 C30.7851211,187.641485 30.7375534,187.345266 27.5886515,186.767403 L25.8581674,186.457978 C23.7987854,186.082814 24.8724853,186.207752 22.8179811,185.459097 L20.8658886,184.758985 L20.4734159,184.610115 C18.91897,184.008586 17.5126477,183.30902 14.9145479,181.595297 L12.652805,180.092765 C11.4045192,179.253303 11.0194268,178.924667 10.17959,177.944393 L7.71743209,175.007814 C5.77272433,172.668594 5.81836397,172.504614 3.92610772,168.720102 L3.51297044,167.90763 L3.07518191,167.076823 C1.91967333,164.922137 1.65836164,164.707092 0.930848835,161.561019 L0.595678477,160.060986 C-0.198559492,156.414803 -0.198559492,151.752202 0.595678477,146.073183 C1.10349659,143.249438 1.76958244,140.807123 2.59393602,138.746239 L3.05536359,137.611357 C3.96622789,135.414444 4.84878153,133.57855 6.48844369,130.734086 L8.90625854,126.611967 L9.21882301,126.089113 C10.2385088,124.401326 11.0771084,123.21597 12.9607692,121.088317 L13.5343437,120.447458 C15.9366629,117.793632 19.4379649,114.298849 24.5214413,109.340195 L31.688403,102.388575 L33.2058286,100.951632 C36.099451,98.2547933 33.7742123,100.787447 34.689488,99.9612761 L39.2353882,95.643991 C42.0812408,92.9293275 45.9595403,89.1464324 50.6666236,84.1474584 L52.5503746,82.1289417 L54.7957508,79.6925021 C59.9944018,74.0202571 63.2381495,68.346923 64.8421324,65.3995353 L65.8720916,63.4785379" id="icon"></path>
            </g>
        </g>
    </g>
</svg>