<?xml version="1.0" encoding="UTF-8"?>
<svg width="166px" height="191px" viewBox="0 0 166 191" version="1.1" xmlns="http://www.w3.org/2000/svg" xmlns:xlink="http://www.w3.org/1999/xlink">
    <title>pips-hearts</title>
    <g id="pips" stroke="none" stroke-width="1" fill="none" fill-rule="evenodd">
        <g transform="translate(0, -112)" fill="#E11515" fill-rule="nonzero" id="pips-hearts">
            <g transform="translate(0, 112)">
                <path d="M43.7017944,0.426517098 C49.3845579,1.26840798 50.5842264,1.67817931 54.9610537,3.24133191 C59.337881,4.80448452 59.5919705,4.86342168 63.4054981,7.46355413 C67.2190257,10.0636866 67.3036916,10.3092835 70.4425352,13.7968875 C72.5350975,16.1219568 74.4116408,18.7022037 76.0721648,21.5376282 L82.916253,35.2274496 L89.7624005,21.5376282 C91.3858271,18.7434231 93.2623703,16.1631762 95.3920301,13.7968875 C98.5865199,10.2474544 98.501854,10.1411995 102.429067,7.46355413 C106.35628,4.78590881 105.398487,5.19669783 110.873512,3.24133191 C116.348536,1.285966 118.315534,0.992033623 122.132771,0.426517098 C125.950007,-0.138999428 127.398949,0.289041375 129.873512,0.426517098 C132.348075,0.56399282 131.587346,0.327197966 134.799438,1.1302208 C138.011529,1.93324364 137.536913,1.72728667 141.132771,3.24133191 C144.728628,4.75537716 144.75555,4.42377917 148.169808,6.75985043 C151.584066,9.09592169 151.800219,9.51762501 154.503141,12.3894801 C157.206064,15.2613351 156.485922,13.4671969 159.429067,18.7228134 C162.372212,23.9784298 162.902172,24.9779115 164.354993,29.9820727 C165.807814,34.9862338 165.622084,37.0297065 165.7624,40.5376282 C165.902717,44.0455499 165.809981,43.6304229 165.058697,47.5746652 C164.307413,51.5189075 165.487538,48.1573572 162.947586,55.315406 C160.407633,62.4734548 160.026357,63.8133607 157.317956,69.3894801 C154.609555,74.9655994 155.335689,73.4184366 150.984623,79.9450356 C146.633557,86.4716346 147.060203,85.5223559 141.836475,92.6117023 C136.612746,99.7010486 136.886051,99.2725367 131.280919,106.685776 C125.675787,114.099016 123.621972,116.61698 120.02166,121.463554 C116.421348,126.310128 119.413322,121.901954 112.984623,131.315406 C106.555924,140.728858 106.173916,140.200566 100.317956,150.315406 C94.461996,160.430246 93.3523024,162.685886 89.7624005,171.426517 C87.3691326,177.253604 85.4925894,183.35237 84.1327709,189.722813 L83.1091104,190.233684 L83.1092018,190.426517 L82.916253,190.328145 L82.7253635,190.426517 L82.7253635,190.233684 L81.7017944,189.722813 C80.9505018,184.833998 79.0739586,178.735232 76.0721648,171.426517 C71.5694741,160.463444 71.2717603,160.256122 65.5166092,150.315406 C59.7614582,140.37469 56.2730953,136.32788 52.8499426,131.315406 C49.4267898,126.302932 51.3607415,128.931795 45.8129055,121.463554 C40.2650696,113.995313 39.8559213,113.698463 34.5536463,106.685776 C29.2513713,99.6730901 28.6262137,98.8927263 23.9980907,92.6117023 C19.3699678,86.3306783 18.2396173,85.0295477 14.8499426,79.9450356 C11.4602678,74.8605235 11.7896899,76.1281756 8.51660925,69.3894801 C5.24352858,62.6507846 4.2173972,59.0647646 2.88697962,55.315406 C1.55656204,51.5660473 1.43199167,51.0193118 0.775868506,47.5746652 C0.119745346,44.1300187 -0.13937018,45.8260028 0.0721648026,40.5376282 C0.283699786,35.2492536 -0.234273489,35.8853189 1.47957221,29.9820727 C3.19341791,24.0788264 4.42271742,22.2634932 6.40549814,18.7228134 C8.38827885,15.1821335 8.40471683,15.4991065 11.3314241,12.3894801 C14.2581313,9.27985363 14.3938302,8.99785324 17.6647574,6.75985043 C20.9356846,4.52184762 21.6124667,4.54210148 24.7017944,3.24133191 C27.7911222,1.94056234 28.6175895,1.73460537 31.0351278,1.1302208 C33.4526661,0.525836229 32.1022834,0.640893227 35.9610537,0.426517098 C39.819824,0.212140968 38.019031,-0.415373784 43.7017944,0.426517098 Z" id="icon"></path>
            </g>
        </g>
    </g>
</svg>