<?xml version="1.0" encoding="UTF-8"?>
<svg width="151px" height="190px" viewBox="0 0 151 190" version="1.1" xmlns="http://www.w3.org/2000/svg" xmlns:xlink="http://www.w3.org/1999/xlink">
    <title>pips-spades</title>
    <g id="pips" stroke="none" stroke-width="1" fill="none" fill-rule="evenodd">
        <g transform="translate(-608, -112)" fill="#000000" fill-rule="nonzero" id="pips-spades">
            <g transform="translate(608, 112)">
                <path d="M71.2007784,11.4889927 L75.068,0.003 L78.9364589,11.4889927 C80.6128534,15.9506096 82.3890824,19.9471247 84.2651456,23.4785379 L85.2951048,25.3995353 C86.8990877,28.346923 90.1428354,34.0202571 95.3414864,39.6925021 L97.5868626,42.1289417 L99.4706137,44.1474584 L100.4326,45.1644254 C104.707724,49.6631302 108.252262,53.1165456 110.901849,55.643991 L115.397474,59.9155037 L115.533997,60.0375027 C115.736503,60.2115862 115.688921,60.1259016 115.601381,59.9937842 L115.472646,59.7978252 C115.292066,59.5020517 115.42684,59.4952795 118.448834,62.3885753 L125.615796,69.3401954 C130.545228,74.148587 133.986921,77.5804824 136.38146,80.2038674 L136.885928,80.7619209 L137.451332,81.4005781 C139.322664,83.5394653 140.109406,84.7191097 141.230979,86.6119673 L143.648794,90.7340862 C145.561733,94.052627 146.444163,95.9983935 147.543301,98.7462388 C148.367655,100.807123 149.033741,103.249438 149.541559,106.073183 C150.335797,111.752202 150.335797,116.414803 149.541559,120.060986 L149.206388,121.561019 L149.046157,122.237223 C148.356786,125.065957 148.057316,125.137905 146.624267,127.90763 L146.21113,128.720102 L144.987017,131.183055 C144.187106,132.768918 143.817564,133.3265 142.419805,135.007814 L139.957647,137.944393 L139.661451,138.28372 C138.914707,139.119249 138.457966,139.448446 136.973289,140.433778 L135.553756,141.375733 C132.516547,143.400539 131.058341,144.09349 129.271349,144.758985 L127.103533,145.538756 C125.475645,146.148381 126.136195,146.10796 124.687682,146.382282 L122.898125,146.70442 C119.15761,147.366221 119.496731,147.690481 115.293534,147.438895 L112.998608,147.283848 C108.965264,146.995458 107.979493,146.825161 104.148858,145.560491 L102.488287,145.005235 L101.421239,144.636505 C98.5752602,143.628598 97.6150704,143.034857 94.2564334,140.709647 C90.5998826,138.178189 88.7242095,135.947523 86.9056737,134.041785 L86.2634032,133.382703 C84.9006563,132.019956 83.5684846,130.465756 82.2668881,128.720102 L76.9382013,120.060986 L76.9382013,132.716617 C76.9440662,135.591259 77.3312804,139.26431 78.0998438,143.735772 L78.5341165,146.154277 L78.7160338,147.125029 C79.5445088,151.487388 80.0995244,153.572864 80.9337431,156.427653 L81.9283386,159.798486 L82.1529781,160.540194 C83.0728254,163.539542 83.3462056,163.894843 84.9312315,167.353081 L85.3324649,168.248643 L85.5831525,168.831826 C86.621073,171.288556 86.5235274,171.594447 88.6066619,174.27059 L89.8261018,175.806599 L90.2059602,176.270052 C91.8213786,178.213486 92.2530333,178.322721 94.9225192,180.008712 C97.0946598,181.380591 99.314946,182.268705 101.583378,182.673056 L104.247721,183.339142 L104.247721,190 L45.8895162,190 L45.8895162,183.339142 L48.5538595,182.673056 C50.8222913,182.268705 53.0425774,181.380591 55.214718,180.008712 L57.0872103,178.836604 C58.365683,178.019105 58.903696,177.544064 60.3111354,175.806599 L61.5305754,174.27059 L61.958946,173.713071 C63.7372123,171.363269 63.5804391,171.048824 64.8047724,168.248643 L65.2060058,167.353081 L66.5641988,164.41287 C67.1635499,163.082595 67.4952053,162.180114 68.2088986,159.798486 L69.3781832,155.826577 C70.1753354,153.066148 70.7327604,150.857447 71.6031208,146.154277 L72.0373934,143.735772 C72.8059569,139.26431 73.1931711,135.591259 73.1990359,132.716617 L73.1990359,120.060986 L67.8703491,128.720102 C66.7314522,130.247549 65.5691461,131.628415 64.3834309,132.862698 L63.2315636,134.041785 L61.7166821,135.651221 C60.2739626,137.170454 58.5528986,138.859735 55.8808039,140.709647 L54.8074133,141.448667 C51.9452255,143.402874 50.9871498,143.873184 47.6489499,145.005235 L45.9883794,145.560491 L45.1815613,145.824007 C42.1224455,146.809957 40.9662529,147.002179 37.5745369,147.252229 L34.8437028,147.438895 L34.0845855,147.480462 C30.7851211,147.641485 30.7375534,147.345266 27.5886515,146.767403 L25.8581674,146.457978 C23.7987854,146.082814 24.8724853,146.207752 22.8179811,145.459097 L20.8658886,144.758985 L20.4734159,144.610115 C18.91897,144.008586 17.5126477,143.30902 14.9145479,141.595297 L12.652805,140.092765 C11.4045192,139.253303 11.0194268,138.924667 10.17959,137.944393 L7.71743209,135.007814 C5.77272433,132.668594 5.81836397,132.504614 3.92610772,128.720102 L3.51297044,127.90763 L3.07518191,127.076823 C1.91967333,124.922137 1.65836164,124.707092 0.930848835,121.561019 L0.595678477,120.060986 C-0.198559492,116.414803 -0.198559492,111.752202 0.595678477,106.073183 C1.10349659,103.249438 1.76958244,100.807123 2.59393602,98.7462388 L3.05536359,97.611357 C3.96622789,95.4144444 4.84878153,93.5785497 6.48844369,90.7340862 L8.90625854,86.6119673 L9.21882301,86.0891133 C10.2385088,84.4013255 11.0771084,83.2159701 12.9607692,81.0883167 L13.5343437,80.4474584 C15.9366629,77.7936316 19.4379649,74.2988492 24.5214413,69.3401954 L31.688403,62.3885753 L33.2058286,60.9516322 C36.099451,58.2547933 33.7742123,60.7874474 34.689488,59.9612761 L39.2353882,55.643991 C42.0812408,52.9293275 45.9595403,49.1464324 50.6666236,44.1474584 L52.5503746,42.1289417 L54.7957508,39.6925021 C59.9944018,34.0202571 63.2381495,28.346923 64.8421324,25.3995353 L65.8720916,23.4785379" id="icon"></path>
            </g>
        </g>
    </g>
</svg>