<?xml version="1.0" encoding="UTF-8"?>
<svg width="160px" height="190px" viewBox="0 0 160 190" version="1.1" xmlns="http://www.w3.org/2000/svg" xmlns:xlink="http://www.w3.org/1999/xlink">
    <title>pips-clubs</title>
    <g id="pips" stroke="none" stroke-width="1" fill="none" fill-rule="evenodd">
        <g transform="translate(-403, -112)" fill="#000000" fill-rule="nonzero" id="pips-clubs">
            <g transform="translate(403, 112)">
                <path d="M80.0103187,0 C101.999846,0 119.82588,17.826034 119.82588,39.8155614 C119.82588,52.5063305 113.888446,63.8103374 104.639897,71.1012625 C109.217016,69.2646811 114.213967,68.2552482 119.446684,68.2552482 C141.436212,68.2552482 159.262246,86.0812822 159.262246,108.07081 C159.262246,130.060337 141.436212,147.886371 119.446684,147.886371 C102.571604,147.886371 87.5828656,135.274422 81.7865326,120.45281 L82.3524105,132.372214 L83.0303845,137.796005 L85.7422803,151.355484 L89.1321501,162.203068 L92.5220199,168.982807 L98.6237855,177.796469 L102.691629,180.508365 L110.149343,183.22026 L110.827317,184.576208 L111.505291,190 L48.5153467,190 L49.1933207,184.576208 L49.8712946,183.22026 L57.3290081,180.508365 L61.3968519,177.796469 L67.4986175,168.982807 L70.8884873,162.203068 L74.278357,151.355484 L76.9902529,137.796005 L77.6682268,132.372214 L78.2627951,120.45281 C73.0561126,136.380132 57.4822531,147.886371 39.8155614,147.886371 C17.826034,147.886371 0,130.060337 0,108.07081 C0,86.0812822 17.826034,68.2552482 39.8155614,68.2552482 C45.7145608,68.2552482 51.3139319,69.5381093 56.3499087,71.8400655 C46.5487742,64.5883566 40.1947572,52.9439891 40.1947572,39.8155614 C40.1947572,17.826034 58.0207913,0 80.0103187,0 Z" id="icon"></path>
            </g>
        </g>
    </g>
</svg>