<?xml version="1.0" encoding="UTF-8"?>
<svg width="32px" height="32px" viewBox="0 0 32 32" version="1.1" xmlns="http://www.w3.org/2000/svg" xmlns:xlink="http://www.w3.org/1999/xlink">
    <title>elements-water-plain-square</title>
    <g id="elements" stroke="none" stroke-width="1" fill="none" fill-rule="evenodd">
        <g transform="translate(-40, 0)" id="water" stroke="#000000" stroke-width="2.5">
            <g transform="translate(40, 0)">
                <g id="elements-water-plain-square" transform="translate(0, -0)">
                    <rect id="Rectangle" x="1.25" y="1.25" width="29.5" height="29.5"></rect>
                    <path d="M7,13.1283789 C7,13.1283789 9.78624079,10 12.2407862,10 C14.6953317,10 15.977887,12.3579573 16.4864865,12.8949178 C16.995086,13.4318784 18.2776413,15.6964512 20.3120393,15.6964512 C22.3464373,15.6964512 25,12.8949178 25,12.8949178 M7,19.4085816 C7,19.4085816 9.78624079,16.2802027 12.2407862,16.2802027 C14.6953317,16.2802027 15.977887,18.63816 16.4864865,19.1751205 C16.995086,19.7120811 18.2776413,22 20.3120393,22 C22.3464373,22 25,19.1751205 25,19.1751205" id="icon" stroke-linecap="round" stroke-linejoin="round"></path>
                </g>
            </g>
        </g>
    </g>
</svg>